# xmcd CD database file
#
# Track frame offsets:
#	150
#	36770
#	66318
#	103052
#	143640
#	178661
#	210280
#
# Disc length: 3185 seconds
#
# Revision: 0
# Processed by: cddbd v1.5.2PL0 Copyright (c) Steve Scherf et al.
# Submitted via: CDex 1.70beta2
#
DISCID=5e0c6f07
DTITLE=NARUYOSHI KIKUCHI DUB SEXTET - Dub Orbits
DYEAR=2008
DGENRE=Jazz
TTITLE0=(I've Lost My) Taylor Burton
TTITLE1=Koh-i-Nur
TTITLE2=Orbits
TTITLE3=Despute
TTITLE4=Ascent
TTITLE5=Monkey Mush Down
TTITLE6=Dismissing Lounge From The Limbo
EXTD=YEAR: 2008
EXTT0=
EXTT1=
EXTT2=
EXTT3=
EXTT4=
EXTT5=
EXTT6=
PLAYORDER=
